<svg width="150" height="35" fill="none" xmlns="http://www.w3.org/2000/svg"><g clip-path="url('#clip0')"><path d="m25.178 1.888 16.787 32.178h12.264L25.178 1.888z" fill="url('#paint0_linear')"/><path d="M25.142 1.8H12.867l29.085 32.267h.012L25.177 1.863l-.035-.063z" fill="url('#paint1_linear')"/><path d="M30.93 21.679 18.224 7.546l12.113.025 12.7 14.108H30.93z" fill="url('#paint2_linear')"/><path d="M70.425.115C30.31 3.568 4.49 22.865 4.49 22.865L.025 34.025C27.24 4.89 66.178.514 70.425.115z" fill="url('#paint3_linear')"/><path d="M70.427.124c.127-.01.253-.023.381-.034-.002.002-.132.01-.381.034z" fill="url('#paint4_linear')"/><path d="M70.804.086c-.128.01-.253.023-.381.034-4.247.396-43.186 4.772-70.4 33.907h4.63l18.99-9.17C42.93 6.44 70.803.087 70.803.087z" fill="url('#paint5_linear')"/><path d="M70.425.118C66.178.514 27.239 4.89.025 34.025h15.608c2.392-3.344 5.105-6.394 8.011-9.17C42.93 6.438 70.806.085 70.806.085l-.381.033z" fill="url('#paint6_linear')"/><path fill-rule="evenodd" clip-rule="evenodd" d="M71.124.406c.126-.01.251-.023.377-.033-.002.002-.13.01-.377.033z" fill="url('#paint7_linear')"/><path fill-rule="evenodd" clip-rule="evenodd" d="m66.144 27.892-6.327.118v3.812c0 .64.67.65.67.65h5.657v1.492h-5.656c-.566.02-1.682-.097-2.258-.564-.566-.459-.48-1.575-.48-1.575V28c0-1.47-1.64-1.47-1.64-1.47h10.034v1.361zm8.832 3.964c0 .64-.67.64-.67.64h-3.398s-.67 0-.67-.64l.008-3.834h4.06s.67.01.67.65v3.184zm2.066-3.184s.086-1.119-.48-1.578c-.576-.469-1.695-.574-2.258-.563H66.57c.065 0 1.588.02 1.588 1.491h.002l.009 3.834s-.086 1.13.48 1.588c.576.47 1.692.564 2.258.543h3.398c.564.02 1.682-.086 2.258-.553.564-.46.48-1.576.48-1.576v-3.186h-.002z" fill="#414042"/><path fill-rule="evenodd" clip-rule="evenodd" d="M84.297 26.53s1.481.15 1.63 1.289v3.28l-5.688-4.175v-.393h-3.717c.042 0 1.64.01 1.64 1.512v5.944h2.077v-4.804l6.465 4.803h1.31v-7.455h-3.717zm26.622 1.503h3.567s.671.02.671.66v1.288c0 .639-.671.66-.671.66h-3.567v-2.608zm6.634 5.954-1.089-2.276c.476-.32.773-.856.773-1.72v-1.298c0-1.928-1.022-2.194-2.749-2.162h-7.286s1.641.02 1.641 1.502v5.954h2.076v-1.854h3.498l.865 1.854h2.271z" fill="#414042"/><path fill-rule="evenodd" clip-rule="evenodd" d="M127.259 31.825s.086 1.118-.49 1.575c-.576.47-1.693.587-2.259.564h-3.408c-.553.02-1.672-.097-2.248-.564-.574-.459-.501-1.588-.501-1.588v-3.781c0-1.482-1.64-1.502-1.64-1.502h3.716v5.294c0 .639.671.649.671.649h3.408s.671-.01.671-.65V28.02c0-1.447-1.513-1.491-1.63-1.491h3.706v5.296h.004zm10.791-3.991-6.327.176v3.813c0 .639.67.649.67.649h5.657v1.492h-5.657c-.566.02-1.682-.097-2.258-.566-.564-.459-.48-1.575-.48-1.575v-3.824c0-1.47-1.64-1.47-1.64-1.47h10.035v1.305zm12.048-1.304v1.503h-4.037v5.954h-1.992v-5.954l-3.505-.117c0-1.492-1.768-1.385-1.768-1.385h11.302z" fill="#414042"/><path fill-rule="evenodd" clip-rule="evenodd" d="M107.357 1.984H96.046c2.231.87 4.288 2.317 4.272 4.795l-.111 17.8h21.326l.025-5.247h-14.344l.143-17.348z" fill="url('#paint8_linear')"/><path fill-rule="evenodd" clip-rule="evenodd" d="M141.762 1.984H113.7c2.263.87 4.289 2.317 4.284 4.827l-.01.419h23.038c.853 0 1.49.643 1.467 1.48v2.255c-.023.836-.65 1.481-1.502 1.481h-9.922l.031-2.704h-6.982l-.105 14.836h6.983l.037-6.92h8.026l2.9 6.92h7.709l-3.392-7.825c1.997-.967 3.185-2.777 3.21-5.757l-.011-2.285c.046-5.28-2.421-6.727-7.699-6.727z" fill="url('#paint9_linear')"/><path fill-rule="evenodd" clip-rule="evenodd" d="M89.463 2.047H67.788L56.421 6.222l32.608 1.07c.853 0 1.542.612 1.519 1.448l-.048 9.237c-.01.87-.65 1.481-1.534 1.481h-9.953l.048-9.687H72.08l-.072 14.933h17.441c1.896 0 4.9-.354 6.457-1.77 1.215-1.224 1.582-3.06 1.588-4.572l.06-10.01c.009-1.416-.215-3.41-1.56-4.537-1.611-1.35-4.603-1.768-6.53-1.768z" fill="url('#paint10_linear')"/><path fill-rule="evenodd" clip-rule="evenodd" d="M88.762 26.53s1.747.011 1.747 1.503h.027v.565h-.006v.18c-.032.394.128 1.216.767 1.62.639.415 2.204.341 2.204.341h2.386c.894 0 .905.501.905.501v.587c0 .65-.905.639-.905.639h-5.38v1.491h5.39c.543 0 1.682.032 2.386-.511.65-.5.564-1.62.564-1.62v-.586c.042-.415-.117-1.225-.756-1.62-.66-.414-2.204-.372-2.204-.372H93.5c-.895 0-.895-.47-.895-.47v-.745h7.85v5.922h1.992v-5.922l4.006-.176V26.53H88.762z" fill="#414042"/></g><defs><linearGradient id="paint0_linear" x1="39.703" y1="34.067" x2="39.703" y2="1.85" gradientUnits="userSpaceOnUse"><stop stop-color="#414042"/><stop offset=".292" stop-color="#696B6D"/><stop offset=".609" stop-color="#8A8C8F"/><stop offset=".856" stop-color="#9FA1A4"/><stop offset="1" stop-color="#A7A9AC"/></linearGradient><linearGradient id="paint1_linear" x1="27.415" y1="34.068" x2="27.415" y2="1.8" gradientUnits="userSpaceOnUse"><stop stop-color="#656668"/><stop offset=".132" stop-color="#757779"/><stop offset=".352" stop-color="#8B8D8F"/><stop offset=".572" stop-color="#9A9C9F"/><stop offset=".789" stop-color="#A4A6A8"/><stop offset="1" stop-color="#A7A9AC"/></linearGradient><linearGradient id="paint2_linear" x1="26.844" y1="9.342" x2="34.564" y2="20.09" gradientUnits="userSpaceOnUse"><stop stop-color="#9C9EA1" stop-opacity="0"/><stop offset=".035" stop-color="#949699" stop-opacity=".066"/><stop offset=".221" stop-color="#78797B" stop-opacity=".42"/><stop offset=".39" stop-color="#686A6C" stop-opacity=".742"/><stop offset=".525" stop-color="#636567"/><stop offset=".666" stop-color="#666769" stop-opacity=".704"/><stop offset=".774" stop-color="#6F7072" stop-opacity=".476"/><stop offset=".871" stop-color="#7F8082" stop-opacity=".271"/><stop offset=".962" stop-color="#98999B" stop-opacity=".081"/><stop offset="1" stop-color="#A8AAAC" stop-opacity="0"/></linearGradient><linearGradient id="paint3_linear" x1=".025" y1="17.07" x2="70.805" y2="17.07" gradientUnits="userSpaceOnUse"><stop stop-color="#017DAD"/><stop offset="1" stop-color="#00527C"/></linearGradient><linearGradient id="paint4_linear" x1="-5.986" y1=".108" x2="78.95" y2=".108" gradientUnits="userSpaceOnUse"><stop stop-color="#00527C"/><stop offset="1" stop-color="#017DAD"/></linearGradient><linearGradient id="paint5_linear" x1=".025" y1="17.056" x2="70.805" y2="17.056" gradientUnits="userSpaceOnUse"><stop stop-color="#00527C"/><stop offset="1" stop-color="#017DAD"/></linearGradient><linearGradient id="paint6_linear" x1="-5.988" y1="17.056" x2="78.948" y2="17.056" gradientUnits="userSpaceOnUse"><stop stop-color="#008FBF"/><stop offset="1" stop-color="#004C89"/></linearGradient><linearGradient id="paint7_linear" x1="-4.402" y1=".391" x2="79.548" y2=".391" gradientUnits="userSpaceOnUse"><stop stop-color="#01527C"/><stop offset="1" stop-color="#077FAD"/></linearGradient><linearGradient id="paint8_linear" x1="96.246" y1="13.28" x2="119.438" y2="13.28" gradientUnits="userSpaceOnUse"><stop stop-color="#0090C0"/><stop offset="1" stop-color="#004C89"/></linearGradient><linearGradient id="paint9_linear" x1="150.625" y1="13.28" x2="117.662" y2="13.28" gradientUnits="userSpaceOnUse"><stop stop-color="#0090C0"/><stop offset="1" stop-color="#004C89"/></linearGradient><linearGradient id="paint10_linear" x1="99.494" y1="13.377" x2="58.93" y2="13.377" gradientUnits="userSpaceOnUse"><stop stop-color="#0090C0"/><stop offset="1" stop-color="#004C89"/></linearGradient><clipPath id="clip0"><path fill="#fff" d="M0 0h150v34.148H0z"/></clipPath></defs></svg>